<?xml version="1.0" encoding="utf-8"?>
<!-- Generator: Adobe Illustrator 19.2.1, SVG Export Plug-In . SVG Version: 6.00 Build 0)  -->
<svg version="1.1" id="Layer_1" xmlns="http://www.w3.org/2000/svg" xmlns:xlink="http://www.w3.org/1999/xlink" x="0px" y="0px"
	 viewBox="0 0 26 26" enable-background="new 0 0 26 26" xml:space="preserve">
<g>
	<path fill="#517CBE" d="M13,26c7.2,0,13-5.8,13-13c0-7.2-5.8-13-13-13C5.8,0,0,5.8,0,13C0,20.2,5.8,26,13,26"/>
	<path fill="#FFFFFF" d="M9.9,10.8h1.3V9.5c0-0.6,0-1.5,0.4-2c0.4-0.6,1-1,2.1-1c1.7,0,2.4,0.2,2.4,0.2l-0.3,2c0,0-0.6-0.2-1.1-0.2
		c-0.5,0-1,0.2-1,0.7v1.5h2.1l-0.1,1.9h-2v6.8h-2.5v-6.8H9.9V10.8z"/>
</g>
</svg>
