<?xml version="1.0" encoding="utf-8"?>
<!-- Generator: Adobe Illustrator 19.2.1, SVG Export Plug-In . SVG Version: 6.00 Build 0)  -->
<svg version="1.1" id="Layer_1" xmlns="http://www.w3.org/2000/svg" xmlns:xlink="http://www.w3.org/1999/xlink" x="0px" y="0px"
	 viewBox="0 0 26 26" enable-background="new 0 0 26 26" xml:space="preserve">
<g>
	<path fill="#DC4F42" d="M13,26c7.2,0,13-5.8,13-13c0-7.2-5.8-13-13-13C5.8,0,0,5.8,0,13C0,20.2,5.8,26,13,26"/>
	<g>
		<path fill="#FFFFFF" d="M5.9,13c-0.1-2.3,2-4.5,4.3-4.5c1.2-0.1,2.4,0.4,3.3,1.1c-0.4,0.4-0.7,0.8-1.1,1.2
			c-0.8-0.5-1.8-0.9-2.7-0.5c-1.5,0.4-2.4,2.2-1.9,3.7c0.5,1.5,2.3,2.4,3.8,1.7c0.8-0.3,1.3-1,1.5-1.7c-0.9,0-1.7,0-2.6,0
			c0-0.5,0-1,0-1.5c1.4,0,2.9,0,4.3,0c0.1,1.3-0.1,2.6-0.9,3.6c-1.1,1.4-3.2,1.9-4.9,1.3C7.2,16.7,5.9,14.9,5.9,13z"/>
		<path fill="#FFFFFF" d="M17.6,11c0.4,0,0.9,0,1.3,0c0,0.4,0,0.9,0,1.3c0.4,0,0.9,0,1.3,0c0,0.4,0,0.9,0,1.3c-0.4,0-0.9,0-1.3,0
			c0,0.4,0,0.9,0,1.3c-0.4,0-0.9,0-1.3,0c0-0.4,0-0.9,0-1.3c-0.4,0-0.9,0-1.3,0c0-0.4,0-0.9,0-1.3c0.4,0,0.9,0,1.3,0
			C17.6,11.9,17.6,11.5,17.6,11z"/>
	</g>
</g>
</svg>
