<?xml version="1.0" encoding="utf-8"?>
<!-- Generator: Adobe Illustrator 19.2.1, SVG Export Plug-In . SVG Version: 6.00 Build 0)  -->
<svg version="1.1" id="Layer_1" xmlns="http://www.w3.org/2000/svg" xmlns:xlink="http://www.w3.org/1999/xlink" x="0px" y="0px"
	 viewBox="0 0 26 26" enable-background="new 0 0 26 26" xml:space="preserve">
<path fill="#1187C9" d="M13,26c7.2,0,13-5.8,13-13c0-7.2-5.8-13-13-13C5.8,0,0,5.8,0,13C0,20.2,5.8,26,13,26"/>
<path fill="#FFFFFF" d="M9.4,18.4H6.8v-8.1h2.5V18.4z M8,9.3L8,9.3c-0.9,0-1.5-0.6-1.5-1.4c0-0.8,0.6-1.4,1.5-1.4
	c0.9,0,1.5,0.6,1.5,1.4C9.6,8.7,9,9.3,8,9.3z M19.5,18.4h-2.9v-4.2c0-1.1-0.4-1.8-1.4-1.8c-0.8,0-1.2,0.5-1.4,1
	c-0.1,0.2-0.1,0.4-0.1,0.7v4.4h-2.8c0,0,0-7.4,0-8.1h2.8v1.3c0.2-0.6,1.1-1.4,2.5-1.4c1.8,0,3.2,1.2,3.2,3.7V18.4z"/>
</svg>
