<?xml version="1.0" encoding="utf-8"?>
<!-- Generator: Adobe Illustrator 19.2.1, SVG Export Plug-In . SVG Version: 6.00 Build 0)  -->
<svg version="1.1" id="Layer_1" xmlns="http://www.w3.org/2000/svg" xmlns:xlink="http://www.w3.org/1999/xlink" x="0px" y="0px"
	 viewBox="0 0 20 14" style="enable-background:new 0 0 20 14;" xml:space="preserve">
<style type="text/css">
	.st0{fill:#FFFFFF;}
</style>
<g>
	<path class="st0" d="M10,8.3L10,8.3c0.2,0,0.3,0,0.4-0.1l0,0c0,0,0,0,0,0l0.4-0.3L20,0.4c0,0-0.1,0-0.1,0H0.1c0,0,0,0-0.1,0
		l9.5,7.8C9.7,8.3,9.8,8.3,10,8.3z M0,1.4v11.1L6.8,7L0,1.4z M13.2,7l6.8,5.5V1.4L13.2,7z M11,8.8c-0.3,0.2-0.6,0.3-1,0.3
		C9.7,9.2,9.3,9,9,8.8L7.5,7.5l-7.5,6v0c0,0.1,0,0.1,0.1,0.1h19.8c0.1,0,0.1,0,0.1-0.1v0l-7.5-6L11,8.8z"/>
</g>
</svg>
