<?xml version="1.0" encoding="utf-8"?>
<!-- Generator: Adobe Illustrator 19.2.1, SVG Export Plug-In . SVG Version: 6.00 Build 0)  -->
<svg version="1.1" id="Layer_1" xmlns="http://www.w3.org/2000/svg" xmlns:xlink="http://www.w3.org/1999/xlink" x="0px" y="0px"
	 viewBox="0 0 285 90" enable-background="new 0 0 285 90" xml:space="preserve">
<g>
	<path fill="#FFFFFF" d="M235.8,43.4l0,16.1l47,0V43h-26c-2.4,0-5.6,0-5.6-2.4c0-2.5,3.1-2.5,5.6-2.5h26V21.5h-26
		c-2.4,0-5.6,0-5.6-2.4c0-2.5,3.1-2.5,5.6-2.5h26V0h-31.3c-9,0-16.7,3.7-16.7,12.1c0,5.4,3.1,8.7,8.8,10.6v0.4
		c-5.6,1.5-8.8,5-8.8,10c0,4.5,3.2,8.8,8.3,10.2v0.5L235.8,43.4L235.8,43.4z"/>
	<path fill-rule="evenodd" clip-rule="evenodd" fill="#010101" d="M170.7,76.9c-0.1-1.7,0.4-4.2,2.9-4.2c2.4,0,2.7,2.6,2.7,4.2
		H170.7L170.7,76.9z M185.7,81.3v-1.3c0-7.2-3-12.3-11.7-12.3c-9.1,0-13.9,3.6-13.9,10.7c0,7.3,4.8,11.5,13.9,11.5
		c3.8,0,7.2-0.4,10.1-1.2v-5.5c-1.7,0.9-4.4,1.3-7.3,1.3c-3.2,0-5.8-0.6-6-3.3H185.7L185.7,81.3z"/>
	<polygon fill="#010101" points="200.6,68.3 197.8,82.2 197.7,82.2 194.9,68.3 183.9,68.3 190.5,89.6 204.4,89.6 211.2,68.3 
		200.6,68.3 	"/>
	<path fill-rule="evenodd" clip-rule="evenodd" fill="#010101" d="M211.5,74.9c2.1-1,4.9-1.8,7.5-1.8c2.7,0,5.7,0.3,5.7,3.1
		c-1-0.1-2.7-0.3-4.2-0.3c-5.4,0-11.6,1.3-11.6,7.8c0,4.4,4,6.2,8.2,6.2c3,0,5.8-1.1,7.3-3.5h0.1v3.1h10.1V76.6
		c0-7.8-7.5-8.8-13.7-8.8c-4.2,0-6.1,0.4-9.4,1.2V74.9L211.5,74.9z M224.7,80.8c0,1.8-1.1,3.8-3.4,3.8c-1.7,0-2.5-0.6-2.5-2
		c0-2.2,2.6-2.4,4.8-2.4h1.1V80.8L224.7,80.8z"/>
	<path fill="#010101" d="M235.7,89.5h10.8V77.3c0-1.2,0-2.9,1.9-2.9c1.9,0,1.9,1.7,1.9,2.9v12.2h10.8V74.7c0-4.1-2.1-7-7.9-7
		c-3.1,0-6,1.2-7.3,4.2h-0.1v-3.7h-10.2V89.5L235.7,89.5z"/>
	<path fill="#010101" d="M262.8,88.8c3,0.7,6.2,1.2,9.4,1.2c5.1,0,12.4-1.6,12.4-7.7c0-8-12.5-5.5-12.5-7.7c0-1.3,1.9-1.5,3.7-1.5
		c2.5,0,4.8,0.5,7,1.2v-5.7c-2.7-0.5-5.4-0.9-8.1-0.9c-5.3,0-12.6,1.1-12.6,7.2c0,8.2,12.5,5.7,12.5,8.3c0,1.1-2.1,1.4-4,1.4
		c-2.8,0-5.9-0.7-7.9-1.9V88.8L262.8,88.8z"/>
	<path fill="#FFFFFF" d="M0.4,89.5h10.8V77.3c0-1.2,0-2.9,1.9-2.9c1.9,0,1.9,1.7,1.9,2.9v12.2h10.8V77.3c0-1.2,0-2.9,1.9-2.9
		c1.9,0,1.9,1.7,1.9,2.9v12.2h10.8V76.8c0-4.2,0-9-7.9-9c-2.7,0-6.4,1.2-7.2,3.6h-0.1c-0.9-2.5-4-3.6-7-3.6c-3.4,0-6.4,1.2-7.6,4.2
		h-0.1v-3.7H0.4V89.5L0.4,89.5z"/>
	<path fill-rule="evenodd" clip-rule="evenodd" fill="#FFFFFF" d="M44,74.9c2.1-1,4.9-1.8,7.5-1.8c2.7,0,5.7,0.3,5.7,3.1
		c-1-0.1-2.7-0.3-4.2-0.3c-5.4,0-11.5,1.3-11.5,7.8c0,4.4,4,6.2,8.2,6.2c3,0,5.8-1.1,7.3-3.5H57v3.1h10V76.6c0-7.8-7.5-8.8-13.7-8.8
		c-4.2,0-6.1,0.4-9.4,1.2V74.9L44,74.9z M57.2,80.8c0,1.8-1.1,3.8-3.3,3.8c-1.7,0-2.5-0.6-2.5-2c0-2.2,2.6-2.4,4.8-2.4h1.1V80.8
		L57.2,80.8z"/>
	<path fill="#FFFFFF" d="M68.6,68.3v21.3h10.8v-7.7c0-3.1,2.5-5.6,5.5-5.6c1,0,1.9,0.1,2.4,0.3V68c-0.4-0.1-1.1-0.2-1.8-0.2
		c-3.4,0-5.5,2.3-6.8,5.3h-0.1v-4.8H68.6L68.6,68.3z"/>
	<path fill="#FFFFFF" d="M109.4,82.6c-1.5,0.9-3.1,1.3-5,1.3c-3.2,0-5.4-1.9-5.4-5.2c0-3.2,2.1-4.8,5.4-4.8c1.9,0,3.5,0.5,4.9,1.1
		v-6.3c-2.2-0.6-4.6-0.9-7.9-0.9c-9.1,0-13.9,3.6-13.9,10.7c0,7.3,4.8,11.5,13.9,11.5c3.2,0,5.6-0.3,8-1.1V82.6L109.4,82.6z"/>
	<path fill="#FFFFFF" d="M136.7,68.3h-10.8v12.2c0,1.2,0,2.9-1.9,2.9c-1.9,0-1.9-1.7-1.9-2.9V68.3h-10.8V83c0,4.1,2.1,7,7.9,7
		c3,0,6-1.2,7.3-4.2h0.1v3.7h10.2V68.3L136.7,68.3z"/>
	<path fill="#FFFFFF" d="M138.1,88.8c3,0.7,6.2,1.2,9.4,1.2c5.1,0,12.4-1.6,12.4-7.7c0-8-12.5-5.5-12.5-7.7c0-1.3,1.9-1.5,3.7-1.5
		c2.4,0,4.8,0.5,7,1.2v-5.7c-2.7-0.5-5.4-0.9-8.1-0.9c-5.3,0-12.6,1.1-12.6,7.2c0,8.2,12.5,5.7,12.5,8.3c0,1.1-2.1,1.4-4,1.4
		c-2.8,0-5.9-0.7-7.9-1.9V88.8L138.1,88.8z"/>
</g>
</svg>
