<?xml version="1.0" encoding="utf-8"?>
<!-- Generator: Adobe Illustrator 19.2.1, SVG Export Plug-In . SVG Version: 6.00 Build 0)  -->
<svg version="1.1" id="Layer_1" xmlns="http://www.w3.org/2000/svg" xmlns:xlink="http://www.w3.org/1999/xlink" x="0px" y="0px"
	 viewBox="0 0 8 8" enable-background="new 0 0 8 8" xml:space="preserve">
<g>
	<path fill="#FFFFFF" d="M7.6,8C7.6,8,7.5,8,7.4,7.9l-2-2c-0.1-0.1-0.1-0.4,0-0.5c0.1-0.1,0.4-0.1,0.5,0l2,2C8,7.5,8,7.8,7.9,7.9
		C7.8,8,7.7,8,7.6,8L7.6,8z M7.6,8"/>
	<path fill="#FFFFFF" d="M3.3,6.6C1.5,6.6,0,5.1,0,3.3C0,1.5,1.5,0,3.3,0c1.8,0,3.3,1.5,3.3,3.3C6.6,5.1,5.1,6.6,3.3,6.6L3.3,6.6z
		 M3.3,0.7c-1.4,0-2.6,1.2-2.6,2.6c0,1.4,1.2,2.6,2.6,2.6c1.4,0,2.6-1.2,2.6-2.6C5.9,1.9,4.7,0.7,3.3,0.7L3.3,0.7z M3.3,0.7"/>
</g>
</svg>
