<?xml version="1.0" encoding="utf-8"?>
<!-- Generator: Adobe Illustrator 19.2.1, SVG Export Plug-In . SVG Version: 6.00 Build 0)  -->
<svg version="1.1" id="Layer_1" xmlns="http://www.w3.org/2000/svg" xmlns:xlink="http://www.w3.org/1999/xlink" x="0px" y="0px"
	 viewBox="0 0 26 26" enable-background="new 0 0 26 26" xml:space="preserve">
<g>
	<path fill="#ED6C53" d="M13,26c7.2,0,13-5.8,13-13c0-7.2-5.8-13-13-13C5.8,0,0,5.8,0,13C0,20.2,5.8,26,13,26"/>
	<path fill="#FFFFFF" d="M15.5,13l-4.3,2.5v-5L15.5,13z M19.5,15.3v-4.6c0,0,0-2.2-2.2-2.2H8.7c0,0-2.2,0-2.2,2.2v4.6
		c0,0,0,2.2,2.2,2.2h8.5C17.3,17.6,19.5,17.6,19.5,15.3"/>
</g>
</svg>
