<?xml version="1.0" encoding="utf-8"?>
<!-- Generator: Adobe Illustrator 19.2.1, SVG Export Plug-In . SVG Version: 6.00 Build 0)  -->
<svg version="1.1" id="Layer_1" xmlns="http://www.w3.org/2000/svg" xmlns:xlink="http://www.w3.org/1999/xlink" x="0px" y="0px"
	 viewBox="0 0 26 26" enable-background="new 0 0 26 26" xml:space="preserve">
<g>
	<path fill="#F1605C" d="M13,26c7.2,0,13-5.8,13-13c0-7.2-5.8-13-13-13C5.8,0,0,5.8,0,13C0,20.2,5.8,26,13,26"/>
	<path fill="#FFFFFF" d="M13,6.5c-3.6,0-6.5,2.9-6.5,6.5c0,2.7,1.6,4.9,3.9,6c0-0.5,0-1,0.1-1.5c0.1-0.5,0.8-3.5,0.8-3.5
		s-0.2-0.4-0.2-1c0-1,0.6-1.7,1.3-1.7c0.6,0,0.9,0.4,0.9,1c0,0.6-0.4,1.5-0.6,2.3c-0.2,0.7,0.3,1.3,1,1.3c1.2,0,2.1-1.6,2.1-3.5
		c0-1.4-1-2.5-2.7-2.5c-2,0-3.2,1.5-3.2,3.1c0,0.6,0.2,1,0.4,1.3c0.1,0.1,0.1,0.2,0.1,0.4c0,0.1-0.1,0.4-0.1,0.5
		c0,0.2-0.2,0.2-0.3,0.2c-0.9-0.4-1.3-1.4-1.3-2.5c0-1.8,1.6-4.1,4.6-4.1c2.5,0,4.1,1.8,4.1,3.7c0,2.6-1.4,4.5-3.5,4.5
		c-0.7,0-1.4-0.4-1.6-0.8c0,0-0.4,1.5-0.5,1.8c-0.1,0.5-0.4,1-0.7,1.4c0.6,0.2,1.2,0.3,1.8,0.3c3.6,0,6.5-2.9,6.5-6.5
		C19.5,9.4,16.6,6.5,13,6.5"/>
</g>
</svg>
