<?xml version="1.0" encoding="utf-8"?>
<!-- Generator: Adobe Illustrator 19.2.1, SVG Export Plug-In . SVG Version: 6.00 Build 0)  -->
<svg version="1.1" id="Layer_1" xmlns="http://www.w3.org/2000/svg" xmlns:xlink="http://www.w3.org/1999/xlink" x="0px" y="0px"
	 viewBox="0 0 26 26" enable-background="new 0 0 26 26" xml:space="preserve">
<g>
	<path fill="#65CCEF" d="M13,26c7.2,0,13-5.8,13-13c0-7.2-5.8-13-13-13C5.8,0,0,5.8,0,13C0,20.2,5.8,26,13,26"/>
	<path fill="#FFFFFF" d="M19.5,9.6C19,9.8,18.5,10,18,10c0.6-0.3,1-0.9,1.2-1.5c-0.5,0.3-1.1,0.5-1.7,0.6c-0.5-0.5-1.2-0.8-1.9-0.8
		c-1.5,0-2.7,1.2-2.7,2.7c0,0.2,0,0.4,0.1,0.6c-2.2-0.1-4.2-1.2-5.5-2.8C7.2,9.2,7,9.7,7,10.2c0,0.9,0.5,1.7,1.2,2.2
		c-0.4,0-0.9-0.1-1.2-0.3v0c0,1.3,0.9,2.4,2.1,2.6c-0.2,0.1-0.5,0.1-0.7,0.1c-0.2,0-0.3,0-0.5,0c0.3,1.1,1.3,1.8,2.5,1.9
		c-0.9,0.7-2.1,1.1-3.3,1.1c-0.2,0-0.4,0-0.6,0c1.2,0.8,2.6,1.2,4.1,1.2c4.9,0,7.6-4.1,7.6-7.6c0-0.1,0-0.2,0-0.3
		C18.7,10.6,19.2,10.1,19.5,9.6"/>
</g>
</svg>
