<?xml version="1.0" encoding="utf-8"?>
<!-- Generator: Adobe Illustrator 19.2.1, SVG Export Plug-In . SVG Version: 6.00 Build 0)  -->
<svg version="1.1" id="Layer_1" xmlns="http://www.w3.org/2000/svg" xmlns:xlink="http://www.w3.org/1999/xlink" x="0px" y="0px"
	 viewBox="0 0 26 26" enable-background="new 0 0 26 26" xml:space="preserve">
<g>
	<path fill="#7CCFDB" d="M13,26c7.2,0,13-5.8,13-13c0-7.2-5.8-13-13-13C5.8,0,0,5.8,0,13C0,20.2,5.8,26,13,26"/>
	<path fill="#FFFFFF" d="M19.5,10.3c-0.1,1.3-0.9,3-2.6,5.2c-1.8,2.3-3.3,3.4-4.5,3.4c-0.8,0-1.4-0.7-1.9-2.1
		c-0.4-1.3-0.7-2.6-1-3.8c-0.4-1.4-0.8-2.1-1.3-2.1c-0.1,0-0.4,0.2-1,0.6l-0.6-0.8C7.1,10.1,7.8,9.6,8.4,9c0.9-0.7,1.5-1.1,1.9-1.2
		c1-0.1,1.6,0.6,1.9,2.1c0.3,1.6,0.4,2.6,0.5,3c0.3,1.3,0.6,2,1,2c0.3,0,0.7-0.4,1.2-1.3c0.5-0.9,0.8-1.5,0.9-2
		c0.1-0.7-0.2-1.1-0.9-1.1c-0.3,0-0.6,0.1-1,0.2c0.6-2.1,1.9-3.1,3.7-3C18.9,7.7,19.6,8.6,19.5,10.3z"/>
</g>
</svg>
